<svg xmlns="http://www.w3.org/2000/svg" viewBox="0 0 1240 440">
  <defs>
    <linearGradient id="db" x1="0" x2="1">
      <stop offset="0%" stop-color="#E11D2E"/>
      <stop offset="55%" stop-color="#2563D9"/>
      <stop offset="100%" stop-color="#D9A62E"/>
    </linearGradient>
    <pattern id="tile" width="30" height="18" patternUnits="userSpaceOnUse" patternTransform="skewX(-25)">
      <rect width="30" height="18" fill="#0C1118"/>
      <path d="M30 0H0V18" fill="none" stroke="#1A2632"/>
    </pattern>
  </defs>
  <rect width="1240" height="440" fill="#07090D"/>
  <rect x="12" y="12" width="1216" height="416" rx="5" fill="#0B0E13" stroke="#202833"/>
  <rect x="12" y="12" width="1216" height="3" fill="url(#db)"/>
  <text x="40" y="48" fill="#D9A62E" font-family="ui-monospace,SFMono-Regular,Menlo,Consolas,monospace" font-size="14" font-weight="700" letter-spacing="2">3D HARDWARE ACTIVITY // 2025-2026</text>
  <text x="40" y="69" fill="#8D98A8" font-family="ui-monospace,SFMono-Regular,Menlo,Consolas,monospace" font-size="10" letter-spacing="1">* VISUAL SUMMARY OF THE AREAS I SPEND TIME BUILDING IN</text>

  <g transform="translate(260 102)">
    <polygon points="0,0 540,175 455,220 -85,45" fill="#0D1219" stroke="#17212C"/>
    <polygon points="-85,45 455,220 455,232 -85,57" fill="#080B0F"/>
    <polygon points="455,220 540,175 540,187 455,232" fill="#050608"/>
    <polygon points="-40,34 470,199 445,213 -65,48" fill="url(#tile)"/>
    <g>
      <g fill="#E11D2E" stroke="#7F121C">
        <polygon points="50,50 63,54 63,86 50,82"/>
        <polygon points="50,50 63,54 72,49 59,45"/>
        <polygon points="63,54 72,49 72,81 63,86"/>
        <polygon points="265,120 278,124 278,173 265,169"/>
        <polygon points="265,120 278,124 287,119 274,115"/>
        <polygon points="278,124 287,119 287,168 278,173"/>
        <polygon points="365,151 378,155 378,211 365,207"/>
        <polygon points="365,151 378,155 387,150 374,146"/>
        <polygon points="378,155 387,150 387,206 378,211"/>
      </g>
      <g fill="#2563D9" stroke="#183F91">
        <polygon points="105,68 118,72 118,91 105,87"/>
        <polygon points="105,68 118,72 127,67 114,63"/>
        <polygon points="118,72 127,67 127,86 118,91"/>
        <polygon points="200,99 213,103 213,135 200,131"/>
        <polygon points="200,99 213,103 222,98 209,94"/>
        <polygon points="213,103 222,98 222,130 213,135"/>
        <polygon points="318,137 331,141 331,164 318,160"/>
        <polygon points="318,137 331,141 340,136 327,132"/>
        <polygon points="331,141 340,136 340,159 331,164"/>
      </g>
      <g fill="#D9A62E" stroke="#8A6718">
        <polygon points="150,82 163,86 163,110 150,106"/>
        <polygon points="150,82 163,86 172,81 159,77"/>
        <polygon points="163,86 172,81 172,105 163,110"/>
        <polygon points="405,170 418,174 418,204 405,200"/>
        <polygon points="405,170 418,174 427,169 414,165"/>
        <polygon points="418,174 427,169 427,199 418,204"/>
      </g>
    </g>
  </g>

  <g transform="translate(50 278)">
    <circle cx="52" cy="56" r="42" fill="none" stroke="#1C2632" stroke-width="16"/>
    <circle cx="52" cy="56" r="42" fill="none" stroke="#E11D2E" stroke-width="16" stroke-dasharray="110 154" transform="rotate(-90 52 56)"/>
    <circle cx="52" cy="56" r="42" fill="none" stroke="#2563D9" stroke-width="16" stroke-dasharray="47 217" stroke-dashoffset="-110" transform="rotate(-90 52 56)"/>
    <circle cx="52" cy="56" r="42" fill="none" stroke="#D9A62E" stroke-width="16" stroke-dasharray="30 234" stroke-dashoffset="-157" transform="rotate(-90 52 56)"/>
    <text x="115" y="31" fill="#E11D2E" font-family="ui-monospace,SFMono-Regular,Menlo,Consolas,monospace" font-size="11">RTL / ASIC</text>
    <text x="115" y="56" fill="#2563D9" font-family="ui-monospace,SFMono-Regular,Menlo,Consolas,monospace" font-size="11">RISC-V</text>
    <text x="115" y="81" fill="#D9A62E" font-family="ui-monospace,SFMono-Regular,Menlo,Consolas,monospace" font-size="11">AI / ML</text>
  </g>

  <g transform="translate(1020 90)">
    <text x="95" y="-2" text-anchor="middle" fill="#F4F7FA" font-family="ui-monospace,SFMono-Regular,Menlo,Consolas,monospace" font-size="11">ENGINEERING AREAS</text>
    <polygon points="95,25 150,65 130,130 60,130 40,65" fill="none" stroke="#273240"/>
    <polygon points="95,42 130,68 118,112 70,112 58,68" fill="#2563D9" fill-opacity=".20" stroke="#2563D9" stroke-width="2"/>
    <line x1="95" y1="25" x2="95" y2="145" stroke="#273240"/>
    <line x1="40" y1="65" x2="150" y2="65" stroke="#273240"/>
    <text x="95" y="165" text-anchor="middle" fill="#E11D2E" font-family="ui-monospace,SFMono-Regular,Menlo,Consolas,monospace" font-size="10">RTL</text>
    <text x="156" y="68" fill="#D9A62E" font-family="ui-monospace,SFMono-Regular,Menlo,Consolas,monospace" font-size="10">AI</text>
    <text x="128" y="143" fill="#2563D9" font-family="ui-monospace,SFMono-Regular,Menlo,Consolas,monospace" font-size="10">ASIC</text>
    <text x="32" y="143" fill="#F4F7FA" font-family="ui-monospace,SFMono-Regular,Menlo,Consolas,monospace" font-size="10">RISC-V</text>
  </g>
  <text x="1070" y="300" fill="#8D98A8" text-anchor="middle" font-family="ui-monospace,SFMono-Regular,Menlo,Consolas,monospace" font-size="10">Not a GitHub metric chart;</text>
  <text x="1070" y="316" fill="#8D98A8" text-anchor="middle" font-family="ui-monospace,SFMono-Regular,Menlo,Consolas,monospace" font-size="10">a visual map of my focus.</text>
</svg>