<svg xmlns="http://www.w3.org/2000/svg" width="1240" height="440" viewBox="0 0 1240 440">
  <defs>
    <linearGradient id="topLine" x1="0" y1="0" x2="1" y2="0">
      <stop offset="0%" stop-color="#E11D2E"/>
      <stop offset="50%" stop-color="#2563D9"/>
      <stop offset="100%" stop-color="#D9A62E"/>
    </linearGradient>

    <pattern id="grid" width="28" height="18" patternUnits="userSpaceOnUse">
      <rect width="28" height="18" fill="#0B1118"/>
      <path d="M28 0H0V18" fill="none" stroke="#17232F" stroke-width="1"/>
    </pattern>
  </defs>

  <!-- canvas -->
  <rect width="1240" height="440" fill="#07090D"/>
  <rect x="12" y="12" width="1216" height="416" rx="5" fill="#0B0E13" stroke="#202833"/>
  <rect x="12" y="12" width="1216" height="3" fill="url(#topLine)">
    <animate attributeName="opacity" values="0.7;1;0.7" dur="3s" repeatCount="indefinite"/>
  </rect>

  <!-- header -->
  <text x="40" y="48" fill="#D9A62E"
        font-family="ui-monospace,SFMono-Regular,Menlo,Consolas,monospace"
        font-size="14" font-weight="700" letter-spacing="2">
    3D HARDWARE ACTIVITY // 2025-2026
  </text>
  <text x="40" y="69" fill="#8D98A8"
        font-family="ui-monospace,SFMono-Regular,Menlo,Consolas,monospace"
        font-size="10" letter-spacing="1">
    * VISUAL SUMMARY OF THE AREAS I SPEND TIME BUILDING IN
  </text>
  <line x1="40" y1="86" x2="1200" y2="86" stroke="#202833"/>

  <!-- MAIN 3-COLUMN GRID
       x: 40..250 | 268..920 | 938..1200
       y: 106..382 -->
  <rect x="40" y="106" width="210" height="276" rx="4" fill="#090C11" stroke="#26323E"/>
  <rect x="268" y="106" width="652" height="276" rx="4" fill="#090C11" stroke="#26323E"/>
  <rect x="938" y="106" width="262" height="276" rx="4" fill="#090C11" stroke="#26323E"/>

  <!-- left panel -->
  <text x="58" y="135" fill="#E11D2E"
        font-family="ui-monospace,SFMono-Regular,Menlo,Consolas,monospace"
        font-size="11" font-weight="700" letter-spacing="1.5">
    CORE FOCUS
  </text>

  <circle cx="145" cy="207" r="50" fill="none" stroke="#18212B" stroke-width="18"/>
  <circle cx="145" cy="207" r="50" fill="none" stroke="#E11D2E"
          stroke-width="18" stroke-dasharray="116 199"
          transform="rotate(-90 145 207)"/>
  <circle cx="145" cy="207" r="50" fill="none" stroke="#2563D9"
          stroke-width="18" stroke-dasharray="47 268"
          stroke-dashoffset="-116" transform="rotate(-90 145 207)"/>
  <circle cx="145" cy="207" r="50" fill="none" stroke="#D9A62E"
          stroke-width="18" stroke-dasharray="31 284"
          stroke-dashoffset="-163" transform="rotate(-90 145 207)"/>

  <text x="145" y="202" text-anchor="middle" fill="#F4F7FA"
        font-family="ui-monospace,SFMono-Regular,Menlo,Consolas,monospace"
        font-size="12" font-weight="700">RTL</text>
  <text x="145" y="218" text-anchor="middle" fill="#8D98A8"
        font-family="ui-monospace,SFMono-Regular,Menlo,Consolas,monospace"
        font-size="9">FOCUS</text>

  <rect x="66" y="278" width="7" height="7" fill="#E11D2E"/>
  <text x="84" y="285" fill="#F4F7FA"
        font-family="ui-monospace,SFMono-Regular,Menlo,Consolas,monospace"
        font-size="10">RTL / ASIC</text>

  <rect x="66" y="302" width="7" height="7" fill="#2563D9"/>
  <text x="84" y="309" fill="#F4F7FA"
        font-family="ui-monospace,SFMono-Regular,Menlo,Consolas,monospace"
        font-size="10">RISC-V</text>

  <rect x="66" y="326" width="7" height="7" fill="#D9A62E"/>
  <text x="84" y="333" fill="#F4F7FA"
        font-family="ui-monospace,SFMono-Regular,Menlo,Consolas,monospace"
        font-size="10">AI / ML</text>

  <!-- center panel -->
  <text x="290" y="135" fill="#2563D9"
        font-family="ui-monospace,SFMono-Regular,Menlo,Consolas,monospace"
        font-size="11" font-weight="700" letter-spacing="1.5">
    PROJECT / CONTRIBUTION INTENSITY
  </text>

  <!-- centered isometric board: one shared projection for board, grid and tower bases -->
  <g transform="translate(335 174)">
    <polygon points="20,30 500,0 620,166 140,196"
             fill="#070A0E" stroke="#263746" stroke-width="2"/>
    <polygon points="20,30 500,0 620,166 140,196"
             fill="#0B1118"/>

    <g stroke="#17232F" stroke-width="1" opacity=".95">
      <line x1="20.0" y1="30.0" x2="140.0" y2="166.0"/>
      <line x1="80.0" y1="26.2" x2="200.0" y2="162.2"/>
      <line x1="140.0" y1="22.5" x2="260.0" y2="158.5"/>
      <line x1="200.0" y1="18.8" x2="320.0" y2="154.8"/>
      <line x1="260.0" y1="15.0" x2="380.0" y2="151.0"/>
      <line x1="320.0" y1="11.2" x2="440.0" y2="147.2"/>
      <line x1="380.0" y1="7.5" x2="500.0" y2="143.5"/>
      <line x1="440.0" y1="3.8" x2="560.0" y2="139.8"/>
      <line x1="500.0" y1="0.0" x2="620.0" y2="136.0"/>
      <line x1="20.0" y1="30.0" x2="500.0" y2="0.0"/>
      <line x1="40.0" y1="52.7" x2="520.0" y2="22.7"/>
      <line x1="60.0" y1="75.3" x2="540.0" y2="45.3"/>
      <line x1="80.0" y1="98.0" x2="560.0" y2="68.0"/>
      <line x1="100.0" y1="120.7" x2="580.0" y2="90.7"/>
      <line x1="120.0" y1="143.3" x2="600.0" y2="113.3"/>
      <line x1="140.0" y1="166.0" x2="620.0" y2="136.0"/>
    </g>
    <polyline points="20,30 500,0 620,166 140,196 20,30"
              fill="none" stroke="#2C3D4B" stroke-width="1.5"/>

    <!-- Spaced animated towers; each tower is isolated on the board to prevent collisions. -->
    <g stroke-linejoin="round">
      <!-- helper pattern: animate each tower by growing vertically from its board base -->
      <!-- RED 1 -->
      <g>
        <polygon points="78,56 88,59 88,27 78,24" fill="#C81427">
          <animate attributeName="points"
            values="78,56 88,59 88,56 78,53;78,56 88,59 88,27 78,24"
            dur="0.9s" begin="0.10s" fill="freeze"
            calcMode="spline" keySplines="0.2 0.8 0.3 1"/>
        </polygon>
        <polygon points="78,24 88,27 96,23 86,20" fill="#E11D2E"/>
        <polygon points="88,59 96,53 96,23 88,27" fill="#82101B">
          <animate attributeName="points"
            values="88,59 96,53 96,53 88,59;88,59 96,53 96,23 88,27"
            dur="0.9s" begin="0.10s" fill="freeze"
            calcMode="spline" keySplines="0.2 0.8 0.3 1"/>
        </polygon>
      </g>

      <!-- BLUE 1 -->
      <g>
        <polygon points="160,79 170,82 170,57 160,54" fill="#194AAB">
          <animate attributeName="points"
            values="160,79 170,82 170,79 160,76;160,79 170,82 170,57 160,54"
            dur="0.9s" begin="0.30s" fill="freeze"
            calcMode="spline" keySplines="0.2 0.8 0.3 1"/>
        </polygon>
        <polygon points="160,54 170,57 178,53 168,50" fill="#2563D9"/>
        <polygon points="170,82 178,76 178,53 170,57" fill="#123773">
          <animate attributeName="points"
            values="170,82 178,76 178,76 170,82;170,82 178,76 178,53 170,57"
            dur="0.9s" begin="0.30s" fill="freeze"
            calcMode="spline" keySplines="0.2 0.8 0.3 1"/>
        </polygon>
      </g>

      <!-- GOLD 1 -->
      <g>
        <polygon points="236,95 246,98 246,76 236,73" fill="#A57B1D">
          <animate attributeName="points"
            values="236,95 246,98 246,95 236,92;236,95 246,98 246,76 236,73"
            dur="0.9s" begin="0.50s" fill="freeze"
            calcMode="spline" keySplines="0.2 0.8 0.3 1"/>
        </polygon>
        <polygon points="236,73 246,76 254,72 244,69" fill="#D9A62E"/>
        <polygon points="246,98 254,92 254,72 246,76" fill="#765A15">
          <animate attributeName="points"
            values="246,98 254,92 254,92 246,98;246,98 254,92 254,72 246,76"
            dur="0.9s" begin="0.50s" fill="freeze"
            calcMode="spline" keySplines="0.2 0.8 0.3 1"/>
        </polygon>
      </g>

      <!-- RED 2 -->
      <g>
        <polygon points="316,106 328,110 328,58 316,54" fill="#C81427">
          <animate attributeName="points"
            values="316,106 328,110 328,106 316,102;316,106 328,110 328,58 316,54"
            dur="0.9s" begin="0.70s" fill="freeze"
            calcMode="spline" keySplines="0.2 0.8 0.3 1"/>
        </polygon>
        <polygon points="316,54 328,58 338,52 326,48" fill="#E11D2E"/>
        <polygon points="328,110 338,104 338,52 328,58" fill="#82101B">
          <animate attributeName="points"
            values="328,110 338,104 338,104 328,110;328,110 338,104 338,52 328,58"
            dur="0.9s" begin="0.70s" fill="freeze"
            calcMode="spline" keySplines="0.2 0.8 0.3 1"/>
        </polygon>
      </g>

      <!-- BLUE 2 -->
      <g>
        <polygon points="395,119 407,123 407,88 395,84" fill="#194AAB">
          <animate attributeName="points"
            values="395,119 407,123 407,119 395,115;395,119 407,123 407,88 395,84"
            dur="0.9s" begin="0.90s" fill="freeze"
            calcMode="spline" keySplines="0.2 0.8 0.3 1"/>
        </polygon>
        <polygon points="395,84 407,88 417,82 405,78" fill="#2563D9"/>
        <polygon points="407,123 417,117 417,82 407,88" fill="#123773">
          <animate attributeName="points"
            values="407,123 417,117 417,117 407,123;407,123 417,117 417,82 407,88"
            dur="0.9s" begin="0.90s" fill="freeze"
            calcMode="spline" keySplines="0.2 0.8 0.3 1"/>
        </polygon>
      </g>

      <!-- RED 3 -->
      <g>
        <polygon points="471,127 483,131 483,77 471,73" fill="#C81427">
          <animate attributeName="points"
            values="471,127 483,131 483,127 471,123;471,127 483,131 483,77 471,73"
            dur="0.9s" begin="1.10s" fill="freeze"
            calcMode="spline" keySplines="0.2 0.8 0.3 1"/>
        </polygon>
        <polygon points="471,73 483,77 493,71 481,67" fill="#E11D2E"/>
        <polygon points="483,131 493,125 493,71 483,77" fill="#82101B">
          <animate attributeName="points"
            values="483,131 493,125 493,125 483,131;483,131 493,125 493,71 483,77"
            dur="0.9s" begin="1.10s" fill="freeze"
            calcMode="spline" keySplines="0.2 0.8 0.3 1"/>
        </polygon>
      </g>

      <!-- GOLD 2 -->
      <g>
        <polygon points="545,139 557,143 557,112 545,108" fill="#A57B1D">
          <animate attributeName="points"
            values="545,139 557,143 557,139 545,135;545,139 557,143 557,112 545,108"
            dur="0.9s" begin="1.30s" fill="freeze"
            calcMode="spline" keySplines="0.2 0.8 0.3 1"/>
        </polygon>
        <polygon points="545,108 557,112 567,106 555,102" fill="#D9A62E"/>
        <polygon points="557,143 567,137 567,106 557,112" fill="#765A15">
          <animate attributeName="points"
            values="557,143 567,137 567,137 557,143;557,143 567,137 567,106 557,112"
            dur="0.9s" begin="1.30s" fill="freeze"
            calcMode="spline" keySplines="0.2 0.8 0.3 1"/>
        </polygon>
      </g>

      <!-- BLUE 3 -->
      <g>
        <polygon points="408,92 420,96 420,66 408,62" fill="#194AAB">
          <animate attributeName="points"
            values="408,92 420,96 420,92 408,88;408,92 420,96 420,66 408,62"
            dur="0.9s" begin="1.50s" fill="freeze"
            calcMode="spline" keySplines="0.2 0.8 0.3 1"/>
        </polygon>
        <polygon points="408,62 420,66 430,60 418,56" fill="#2563D9"/>
        <polygon points="420,96 430,90 430,60 420,66" fill="#123773">
          <animate attributeName="points"
            values="420,96 430,90 430,90 420,96;420,96 430,90 430,60 420,66"
            dur="0.9s" begin="1.50s" fill="freeze"
            calcMode="spline" keySplines="0.2 0.8 0.3 1"/>
        </polygon>
      </g>
    </g>
  </g>

  <text x="594" y="386" text-anchor="middle" fill="#8D98A8"
        font-family="ui-monospace,SFMono-Regular,Menlo,Consolas,monospace"
        font-size="9">
    RTL DESIGN  •  RISC-V  •  AI HARDWARE  •  FPGA  •  ASIC
  </text>

  <!-- right panel -->
  <text x="959" y="135" fill="#D9A62E"
        font-family="ui-monospace,SFMono-Regular,Menlo,Consolas,monospace"
        font-size="11" font-weight="700" letter-spacing="1.5">
    ENGINEERING AREAS
  </text>

  <!-- radar centered at 1069, 216 -->
  <g transform="translate(1069 216)">
    <polygon points="0,-70 66,-22 41,56 -41,56 -66,-22"
             fill="none" stroke="#283440"/>
    <polygon points="0,-48 45,-15 28,38 -28,38 -45,-15"
             fill="none" stroke="#283440"/>
    <polygon points="0,-27 25,-8 16,22 -16,22 -25,-8"
             fill="none" stroke="#283440"/>

    <line x1="0" y1="0" x2="0" y2="-70" stroke="#283440"/>
    <line x1="0" y1="0" x2="66" y2="-22" stroke="#283440"/>
    <line x1="0" y1="0" x2="41" y2="56" stroke="#283440"/>
    <line x1="0" y1="0" x2="-41" y2="56" stroke="#283440"/>
    <line x1="0" y1="0" x2="-66" y2="-22" stroke="#283440"/>

    <polygon points="0,-55 45,-15 27,37 -29,28 -45,-15"
             fill="#2563D9" fill-opacity=".17" stroke="#2563D9" stroke-width="2"/>
    <circle cx="0" cy="-55" r="2.4" fill="#D9A62E"/>
    <circle cx="45" cy="-15" r="2.4" fill="#D9A62E"/>
    <circle cx="27" cy="37" r="2.4" fill="#D9A62E"/>
    <circle cx="-29" cy="28" r="2.4" fill="#D9A62E"/>
    <circle cx="-45" cy="-15" r="2.4" fill="#D9A62E"/>
  </g>

  <text x="1069" y="134" text-anchor="middle" fill="#F4F7FA"
        font-family="ui-monospace,SFMono-Regular,Menlo,Consolas,monospace" font-size="8">RTL</text>
  <text x="1141" y="198" fill="#F4F7FA"
        font-family="ui-monospace,SFMono-Regular,Menlo,Consolas,monospace" font-size="8">AI</text>
  <text x="1116" y="283" fill="#F4F7FA"
        font-family="ui-monospace,SFMono-Regular,Menlo,Consolas,monospace" font-size="8">ASIC</text>
  <text x="995" y="283" fill="#F4F7FA"
        font-family="ui-monospace,SFMono-Regular,Menlo,Consolas,monospace" font-size="8">FPGA</text>
  <text x="985" y="198" fill="#F4F7FA"
        font-family="ui-monospace,SFMono-Regular,Menlo,Consolas,monospace" font-size="8">RISC-V</text>

  <line x1="958" y1="310" x2="1180" y2="310" stroke="#202833"/>

  <text x="978" y="332" fill="#8D98A8"
        font-family="ui-monospace,SFMono-Regular,Menlo,Consolas,monospace"
        font-size="8">PRIMARY</text>
  <text x="978" y="349" fill="#E11D2E"
        font-family="ui-monospace,SFMono-Regular,Menlo,Consolas,monospace"
        font-size="12" font-weight="700">RTL / ASIC</text>

  <text x="1091" y="332" fill="#8D98A8"
        font-family="ui-monospace,SFMono-Regular,Menlo,Consolas,monospace"
        font-size="8">SECONDARY</text>
  <text x="1091" y="349" fill="#2563D9"
        font-family="ui-monospace,SFMono-Regular,Menlo,Consolas,monospace"
        font-size="12" font-weight="700">RISC-V / AI</text>

  <!-- bottom baseline -->
  <line x1="40" y1="407" x2="1200" y2="407" stroke="#202833"/>
  <text x="620" y="424" text-anchor="middle" fill="#8D98A8"
        font-family="ui-monospace,SFMono-Regular,Menlo,Consolas,monospace"
        font-size="9" letter-spacing="1">
    DESIGN  →  VERIFY  →  SYNTHESIZE  →  OPTIMIZE
  </text>
</svg>
